# xmcd
#
# Track frame offsets: 
#        150
#        11475
#        26031
#        40860
#        52560
#        69004
#        89063
#        142172
#        163136
#
# Disc length: 2327 seconds
#
# Revision: 1
# Processed by: cddbd v1.5.2PL0 Copyright (c) Steve Scherf et al.
# Submitted via: ExactAudioCopy v0.95b4
#
DISCID=6f091509
DTITLE=Astor Piazzolla - Completo en Philips y Polydor vol. 1 (64-65)
DYEAR=1998
DGENRE=Tango
TTITLE0=Completo en Philips y Polydor vol. 1 (64-65) - El recodo
TTITLE1=Completo en Philips y Polydor vol. 1 (64-65) - Orgullo criollo
TTITLE2=Completo en Philips y Polydor vol. 1 (64-65) - Preparense
TTITLE3=Completo en Philips y Polydor vol. 1 (64-65) - Imperial
TTITLE4=Completo en Philips y Polydor vol. 1 (64-65) - Bandoneon, guit
TTITLE4=arra y bajo
TTITLE5=Completo en Philips y Polydor vol. 1 (64-65) - Lunfardo
TTITLE6=Completo en Philips y Polydor vol. 1 (64-65) - Tango ballet
TTITLE7=Completo en Philips y Polydor vol. 1 (64-65) - Caliente
TTITLE8=Completo en Philips y Polydor vol. 1 (64-65) - Contemporaneo
EXTD=YEAR: 1998
EXTT0=
EXTT1=
EXTT2=
EXTT3=
EXTT4=
EXTT5=
EXTT6=
EXTT7=
EXTT8=
PLAYORDER=
